<svg width="124" height="141" viewBox="0 0 124 141" fill="none" xmlns="http://www.w3.org/2000/svg">
    <path d="M17.3799 67.1578C17.3799 67.1578 2.92706 55.2848 1.96354 52.7177C1.421 51.2722 1 49.1879 1 46.6208C1 44.0537 1.6829 41.9259 1.96353 40.5239C2.60581 37.3149 12.8835 17.4197 23.1611 10.0392C33.4388 2.65873 35.0445 2.33783 47.2492 1.69605C51.9069 1.45113 54.5594 2.46939 56.5632 3.30052C59.8101 4.64724 61.1528 6.18854 62.3444 6.18853C63.2783 6.18853 67.34 2.46281 73.2643 1.37517C79.5636 0.218697 85.7901 2.01695 88.0384 2.97963C90.2866 3.9423 100.885 10.681 105.703 14.8526C108.253 17.061 111.628 20.1953 115.338 24.8002C117.431 27.3983 119.648 30.1672 121.119 33.7851C121.966 35.8675 122.615 38.1268 122.725 39.5612C123.367 47.9044 122.725 51.755 122.404 53.0386C122.083 54.3222 119.513 59.1355 116.944 62.0235C114.375 64.9116 107.309 67.4787 107.309 67.4787M17.3799 67.1578V46.6208C17.3799 46.6208 18.3233 41.0241 22.5187 38.2776C27.3363 35.7105 36.153 34.7478 38.2563 34.7478C42.1104 34.7478 58.1691 36.3523 58.1691 36.3523L63.9503 36.9941C63.9503 36.9941 70.3737 35.3896 72.622 35.3896C74.8702 35.3896 86.7537 34.7478 90.6078 35.3896C94.4618 36.0314 96.6722 37.2085 100.564 39.5612C104.056 41.6719 107.005 46.2003 107.309 47.2626C107.951 49.5088 107.309 67.4787 107.309 67.4787M17.3799 67.1578C17.3799 77.7904 19.3346 86.9286 20.9128 94.4335C24.2404 110.258 28.2999 117.538 28.2999 117.538C28.2999 117.538 36.3292 128.448 45.9645 133.903C55.5997 139.358 63.3081 140 66.8409 140C70.3737 140 77.7608 139.358 87.0748 133.903C96.3889 128.448 103.134 116.352 103.134 116.352C103.134 116.352 104.097 113.687 104.418 111.762C104.739 109.836 104.739 106.948 104.739 106.948L105.382 92.6059L106.666 78.7099L107.309 67.4787" stroke="#FFFBFB" stroke-width="2"/>
</svg>
