<svg width="119" height="136" viewBox="0 0 119 136" fill="none" xmlns="http://www.w3.org/2000/svg">
    <path d="M16.7086 64.5025C16.7086 64.5025 2.84808 53.1061 1.92405 50.642C1.40375 49.2546 1 47.2539 1 44.7898C1 42.3257 1.65491 40.2833 1.92404 38.9375C2.54 35.8574 12.3964 16.7607 22.2529 9.67643C32.1093 2.59215 33.6493 2.28414 45.3538 1.66811C49.8205 1.43302 52.3644 2.41041 54.2861 3.20818C57.3999 4.50085 58.6875 5.9803 59.8303 5.98029C60.7259 5.98028 64.6211 2.4041 70.3027 1.36011C76.3438 0.250055 82.3151 1.97613 84.4712 2.90017C86.6273 3.82421 96.7917 10.2924 101.412 14.2966C103.858 16.4164 107.094 19.4249 110.652 23.845C112.66 26.3388 114.786 28.9966 116.196 32.4693C117.008 34.4681 117.631 36.6368 117.736 38.0135C118.352 46.0218 117.736 49.718 117.428 50.95C117.121 52.1821 114.656 56.8022 112.192 59.5743C109.728 62.3465 102.952 64.8105 102.952 64.8105M16.7086 64.5025V44.7898C16.7086 44.7898 17.6134 39.4178 21.6368 36.7815C26.257 34.3174 34.7123 33.3933 36.7294 33.3933C40.4255 33.3933 55.8261 34.9334 55.8261 34.9334L61.3703 35.5494C61.3703 35.5494 67.5306 34.0094 69.6866 34.0094C71.8427 34.0094 83.2392 33.3933 86.9353 34.0094C90.6314 34.6254 92.7512 35.7552 96.4837 38.0135C99.8322 40.0396 102.661 44.3862 102.952 45.4058C103.568 47.5619 102.952 64.8105 102.952 64.8105M16.7086 64.5025C16.7086 74.7084 18.5832 83.4798 20.0967 90.6835C23.2879 105.873 27.181 112.86 27.181 112.86C27.181 112.86 34.8813 123.333 44.1217 128.569C53.362 133.805 60.7544 134.421 64.1425 134.421C67.5306 134.421 74.6148 133.805 83.5472 128.569C92.4795 123.333 98.9478 111.722 98.9478 111.722C98.9478 111.722 99.8718 109.164 100.18 107.316C100.488 105.468 100.488 102.696 100.488 102.696L101.104 88.9293L102.336 75.591L102.952 64.8105" stroke="#FFFBFB" stroke-width="2"/>
</svg>
