<svg width="124" height="140" viewBox="0 0 124 140" fill="none" xmlns="http://www.w3.org/2000/svg">
    <path d="M18.1845 67.8198C18.1845 67.8198 3.79746 58.5481 2.19893 52.4736C0.600403 46.3991 0.600311 45.7596 2.19893 40.6442C3.79755 35.5289 24.259 2.27885 41.8432 2.27885C59.4274 2.27885 62.6245 5.79568 62.6245 5.79568C62.6245 5.79568 75.0932 1 83.7255 1C92.3577 1 122.091 27.5361 122.41 35.5289C122.73 43.5217 122.41 33.9303 122.41 48.9568C122.41 63.9832 107.704 67.8198 107.704 67.8198M18.1845 67.8198C18.1845 67.8198 21.3817 103.627 26.1773 112.899C30.9729 122.171 41.8432 134.639 64.223 138.476C86.6028 142.313 100.031 124.089 103.867 116.096C107.704 108.103 107.704 67.8198 107.704 67.8198M18.1845 67.8198C18.1845 67.8198 16.2663 49.5962 18.1845 43.202C20.1027 36.8077 23.2998 35.5289 30.973 35.5289C38.6461 35.5289 53.5 36 62.6245 37.4471C71.7489 38.8943 73.1748 35.5289 84.3648 35.5289C95.5548 35.5289 100.031 40.6442 105.466 43.202C110.901 45.7597 107.704 67.8198 107.704 67.8198" stroke="#F5F5F5" stroke-width="1.91827"/>
</svg>
